<svg id="Capa_1" data-name="Capa 1" xmlns="http://www.w3.org/2000/svg" viewBox="0 0 193.83 193.83"><defs><style>.cls-1{fill:#353535;}</style></defs><path class="cls-1" d="M191.49,55.51l-54-54a5,5,0,0,0-7.07,0l-.23.22a17.54,17.54,0,0,0-3,20.89L70.65,71.12a23.58,23.58,0,0,0-32.39.93l-.34.33a5,5,0,0,0,0,7.07L70.3,111.83,38.76,143.37c-.63.64-15.55,16-25.37,28.27C4.05,183.29,2.2,185.42,2.11,185.53a5,5,0,0,0,7.05,7.06c.08-.07,2.17-1.88,13.9-11.29,12.24-9.81,27.62-24.74,28.32-25.42L82.86,124.4,113.5,155a5,5,0,0,0,7.07,0l.34-.34a23.58,23.58,0,0,0,.93-32.39l48.54-56.55a17.54,17.54,0,0,0,20.89-3l.23-.23A5,5,0,0,0,191.49,55.51Z"/></svg>