<?xml version="1.0" standalone="no"?>
<!DOCTYPE svg PUBLIC "-//W3C//DTD SVG 20010904//EN"
 "http://www.w3.org/TR/2001/REC-SVG-20010904/DTD/svg10.dtd">
<svg version="1.0" xmlns="http://www.w3.org/2000/svg"
 width="256.000000pt" height="256.000000pt" viewBox="0 0 256.000000 256.000000"
 preserveAspectRatio="xMidYMid meet">
<metadata>
Created by potrace 1.11, written by Peter Selinger 2001-2013
</metadata>
<g transform="translate(0.000000,256.000000) scale(0.100000,-0.100000)"
fill="#000000" stroke="none">
<path d="M1160 2550 c-558 -52 -1015 -465 -1131 -1023 -29 -142 -29 -352 0
-494 108 -522 513 -918 1031 -1009 123 -21 317 -21 440 0 526 93 943 510 1036
1036 21 123 21 317 0 440 -91 516 -493 928 -1004 1029 -119 23 -259 31 -372
21z m870 -548 c27 -33 35 -104 21 -203 -36 -272 -180 -548 -363 -696 -116 -94
-290 -163 -448 -179 l-72 -7 -97 -96 c-106 -107 -231 -195 -378 -267 -105 -51
-173 -67 -173 -41 0 31 51 151 101 239 72 125 160 241 246 323 40 39 73 76 73
83 0 17 -3 16 -68 -17 -48 -24 -129 -60 -289 -127 -28 -12 -34 -12 -48 3 -24
23 -15 46 87 238 123 231 155 284 197 328 43 45 86 58 201 61 l85 1 75 76
c193 194 469 311 723 306 100 -2 110 -4 127 -25z m-355 -1049 c-9 -87 -32
-139 -76 -177 -60 -51 -481 -277 -518 -278 -58 -2 -58 11 -1 144 86 201 82
196 137 203 152 19 353 89 428 149 32 25 37 19 30 -41z"/>
<path d="M1785 1850 c-77 -30 -57 -143 25 -143 87 0 100 124 15 146 -11 3 -29
2 -40 -3z"/>
<path d="M1504 1686 c-102 -63 -96 -219 10 -270 110 -52 233 29 223 147 -7 80
-64 137 -144 144 -38 3 -56 -1 -89 -21z"/>
</g>
</svg>
